<mxfile host="app.diagrams.net" modified="2023-06-05T15:11:08.681Z" agent="Mozilla/5.0 (Windows NT 10.0; Win64; x64) AppleWebKit/537.36 (KHTML, like Gecko) Chrome/114.0.0.0 Safari/537.36" etag="5Y6tcA_T5ZTU-2Ovx5I4" version="21.3.7" type="device">
  <diagram name="Page-1" id="x5yqC2EzZS84LuQq3Z6w">
    <mxGraphModel dx="1667" dy="418" grid="1" gridSize="10" guides="1" tooltips="1" connect="1" arrows="1" fold="1" page="1" pageScale="1" pageWidth="827" pageHeight="1169" math="0" shadow="0">
      <root>
        <mxCell id="0" />
        <mxCell id="1" parent="0" />
        <mxCell id="VSFJef5oLKpG24ELSL6e-1" value="Uporabnik" style="swimlane;whiteSpace=wrap;html=1;" parent="1" vertex="1">
          <mxGeometry x="-230" y="30" width="390" height="450" as="geometry" />
        </mxCell>
        <mxCell id="AHh_PJfKWDilDdfDOyjY-2" value="" style="edgeStyle=orthogonalEdgeStyle;rounded=0;orthogonalLoop=1;jettySize=auto;html=1;" parent="VSFJef5oLKpG24ELSL6e-1" source="VSFJef5oLKpG24ELSL6e-2" target="VSFJef5oLKpG24ELSL6e-4" edge="1">
          <mxGeometry relative="1" as="geometry" />
        </mxCell>
        <mxCell id="VSFJef5oLKpG24ELSL6e-2" value="" style="ellipse;html=1;shape=startState;fillColor=#000000;strokeColor=#ff0000;" parent="VSFJef5oLKpG24ELSL6e-1" vertex="1">
          <mxGeometry x="180" y="30" width="30" height="30" as="geometry" />
        </mxCell>
        <mxCell id="NypNd-sz89lVhIiOWmZa-2" style="edgeStyle=orthogonalEdgeStyle;rounded=0;orthogonalLoop=1;jettySize=auto;html=1;entryX=0.5;entryY=0;entryDx=0;entryDy=0;" edge="1" parent="VSFJef5oLKpG24ELSL6e-1" source="AHh_PJfKWDilDdfDOyjY-1" target="NypNd-sz89lVhIiOWmZa-1">
          <mxGeometry relative="1" as="geometry" />
        </mxCell>
        <mxCell id="AHh_PJfKWDilDdfDOyjY-1" value="Pregled podrobnosti rastline v virtualnem vrtu" style="rounded=1;whiteSpace=wrap;html=1;" parent="VSFJef5oLKpG24ELSL6e-1" vertex="1">
          <mxGeometry x="135" y="180" width="120" height="60" as="geometry" />
        </mxCell>
        <mxCell id="VSFJef5oLKpG24ELSL6e-4" value="Klikne na rastlino" style="rounded=1;whiteSpace=wrap;html=1;" parent="VSFJef5oLKpG24ELSL6e-1" vertex="1">
          <mxGeometry x="135" y="90" width="120" height="60" as="geometry" />
        </mxCell>
        <mxCell id="VSFJef5oLKpG24ELSL6e-7" value="" style="ellipse;html=1;shape=endState;fillColor=#000000;strokeColor=#ff0000;" parent="VSFJef5oLKpG24ELSL6e-1" vertex="1">
          <mxGeometry x="60" y="410" width="30" height="30" as="geometry" />
        </mxCell>
        <mxCell id="VSFJef5oLKpG24ELSL6e-5" style="edgeStyle=orthogonalEdgeStyle;rounded=0;orthogonalLoop=1;jettySize=auto;html=1;entryX=0.5;entryY=0;entryDx=0;entryDy=0;exitX=0.5;exitY=1;exitDx=0;exitDy=0;" parent="VSFJef5oLKpG24ELSL6e-1" source="NypNd-sz89lVhIiOWmZa-3" target="VSFJef5oLKpG24ELSL6e-7" edge="1">
          <mxGeometry relative="1" as="geometry">
            <mxPoint x="115" y="399.93000000000006" as="targetPoint" />
            <Array as="points" />
            <mxPoint x="75" y="380" as="sourcePoint" />
          </mxGeometry>
        </mxCell>
        <mxCell id="NypNd-sz89lVhIiOWmZa-4" style="edgeStyle=orthogonalEdgeStyle;rounded=0;orthogonalLoop=1;jettySize=auto;html=1;entryX=0.475;entryY=0.028;entryDx=0;entryDy=0;entryPerimeter=0;" edge="1" parent="VSFJef5oLKpG24ELSL6e-1" source="NypNd-sz89lVhIiOWmZa-1" target="NypNd-sz89lVhIiOWmZa-3">
          <mxGeometry relative="1" as="geometry" />
        </mxCell>
        <mxCell id="NypNd-sz89lVhIiOWmZa-12" value="UREJANJE" style="edgeLabel;html=1;align=center;verticalAlign=middle;resizable=0;points=[];" vertex="1" connectable="0" parent="NypNd-sz89lVhIiOWmZa-4">
          <mxGeometry x="0.333" y="-1" relative="1" as="geometry">
            <mxPoint x="37" y="1" as="offset" />
          </mxGeometry>
        </mxCell>
        <mxCell id="NypNd-sz89lVhIiOWmZa-10" value="DODAJANJE" style="edgeStyle=orthogonalEdgeStyle;rounded=0;orthogonalLoop=1;jettySize=auto;html=1;entryX=0.5;entryY=0;entryDx=0;entryDy=0;" edge="1" parent="VSFJef5oLKpG24ELSL6e-1" source="NypNd-sz89lVhIiOWmZa-1" target="NypNd-sz89lVhIiOWmZa-7">
          <mxGeometry x="0.7035" y="20" relative="1" as="geometry">
            <mxPoint as="offset" />
          </mxGeometry>
        </mxCell>
        <mxCell id="NypNd-sz89lVhIiOWmZa-1" value="" style="rhombus;whiteSpace=wrap;html=1;" vertex="1" parent="VSFJef5oLKpG24ELSL6e-1">
          <mxGeometry x="180" y="270" width="30" height="30" as="geometry" />
        </mxCell>
        <mxCell id="NypNd-sz89lVhIiOWmZa-3" value="Urejanje rastline" style="rounded=1;whiteSpace=wrap;html=1;" vertex="1" parent="VSFJef5oLKpG24ELSL6e-1">
          <mxGeometry x="15" y="320" width="120" height="60" as="geometry" />
        </mxCell>
        <mxCell id="NypNd-sz89lVhIiOWmZa-5" value="" style="ellipse;html=1;shape=endState;fillColor=#000000;strokeColor=#ff0000;" vertex="1" parent="VSFJef5oLKpG24ELSL6e-1">
          <mxGeometry x="180" y="360" width="30" height="30" as="geometry" />
        </mxCell>
        <mxCell id="NypNd-sz89lVhIiOWmZa-6" value="NE" style="edgeStyle=orthogonalEdgeStyle;rounded=0;orthogonalLoop=1;jettySize=auto;html=1;entryX=0.5;entryY=0;entryDx=0;entryDy=0;exitX=0.5;exitY=1;exitDx=0;exitDy=0;" edge="1" parent="VSFJef5oLKpG24ELSL6e-1" target="NypNd-sz89lVhIiOWmZa-5">
          <mxGeometry relative="1" as="geometry">
            <mxPoint x="235" y="319.93000000000006" as="targetPoint" />
            <Array as="points" />
            <mxPoint x="195" y="300" as="sourcePoint" />
          </mxGeometry>
        </mxCell>
        <mxCell id="NypNd-sz89lVhIiOWmZa-9" value="" style="edgeStyle=orthogonalEdgeStyle;rounded=0;orthogonalLoop=1;jettySize=auto;html=1;" edge="1" parent="VSFJef5oLKpG24ELSL6e-1" source="NypNd-sz89lVhIiOWmZa-7" target="NypNd-sz89lVhIiOWmZa-8">
          <mxGeometry relative="1" as="geometry" />
        </mxCell>
        <mxCell id="NypNd-sz89lVhIiOWmZa-7" value="Izbris rastline" style="rounded=1;whiteSpace=wrap;html=1;" vertex="1" parent="VSFJef5oLKpG24ELSL6e-1">
          <mxGeometry x="250" y="320" width="120" height="60" as="geometry" />
        </mxCell>
        <mxCell id="NypNd-sz89lVhIiOWmZa-8" value="" style="ellipse;html=1;shape=endState;fillColor=#000000;strokeColor=#ff0000;" vertex="1" parent="VSFJef5oLKpG24ELSL6e-1">
          <mxGeometry x="295" y="410" width="30" height="30" as="geometry" />
        </mxCell>
        <mxCell id="NypNd-sz89lVhIiOWmZa-11" value="Ali Å¾eli uporabnik urediti podatke, izbrisati rastlino ali ne?" style="text;html=1;strokeColor=none;fillColor=none;align=center;verticalAlign=middle;whiteSpace=wrap;rounded=0;" vertex="1" parent="VSFJef5oLKpG24ELSL6e-1">
          <mxGeometry x="200" y="250" width="180" height="30" as="geometry" />
        </mxCell>
        <mxCell id="VSFJef5oLKpG24ELSL6e-11" value="Aplikacija" style="swimlane;whiteSpace=wrap;html=1;" parent="1" vertex="1">
          <mxGeometry x="160" y="30" width="280" height="450" as="geometry" />
        </mxCell>
        <mxCell id="AHh_PJfKWDilDdfDOyjY-5" value="" style="edgeStyle=orthogonalEdgeStyle;rounded=0;orthogonalLoop=1;jettySize=auto;html=1;" parent="VSFJef5oLKpG24ELSL6e-11" source="AHh_PJfKWDilDdfDOyjY-3" target="VSFJef5oLKpG24ELSL6e-12" edge="1">
          <mxGeometry relative="1" as="geometry" />
        </mxCell>
        <mxCell id="AHh_PJfKWDilDdfDOyjY-3" value="Posreduje podatke o rastlini" style="rounded=1;whiteSpace=wrap;html=1;" parent="VSFJef5oLKpG24ELSL6e-11" vertex="1">
          <mxGeometry x="80" y="90" width="120" height="60" as="geometry" />
        </mxCell>
        <mxCell id="VSFJef5oLKpG24ELSL6e-12" value="Preusmeri na zaslon s podrobnostmi o rastlini" style="rounded=1;whiteSpace=wrap;html=1;" parent="VSFJef5oLKpG24ELSL6e-11" vertex="1">
          <mxGeometry x="80" y="180" width="120" height="60" as="geometry" />
        </mxCell>
        <mxCell id="AHh_PJfKWDilDdfDOyjY-4" value="" style="edgeStyle=orthogonalEdgeStyle;rounded=0;orthogonalLoop=1;jettySize=auto;html=1;" parent="1" source="VSFJef5oLKpG24ELSL6e-4" target="AHh_PJfKWDilDdfDOyjY-3" edge="1">
          <mxGeometry relative="1" as="geometry" />
        </mxCell>
        <mxCell id="AHh_PJfKWDilDdfDOyjY-6" style="edgeStyle=orthogonalEdgeStyle;rounded=0;orthogonalLoop=1;jettySize=auto;html=1;entryX=1;entryY=0.5;entryDx=0;entryDy=0;" parent="1" source="VSFJef5oLKpG24ELSL6e-12" target="AHh_PJfKWDilDdfDOyjY-1" edge="1">
          <mxGeometry relative="1" as="geometry" />
        </mxCell>
      </root>
    </mxGraphModel>
  </diagram>
</mxfile>
